<?xml version="1.0" encoding="us-ascii" standalone="no"?><svg xmlns="http://www.w3.org/2000/svg" xmlns:xlink="http://www.w3.org/1999/xlink" contentStyleType="text/css" height="983px" preserveAspectRatio="none" style="width:996px;height:983px;background:#FFFFFF;" version="1.1" viewBox="0 0 996 983" width="996px" zoomAndPan="magnify"><defs/><g><!--class Product--><g id="elem_Product"><rect codeLine="1" fill="#F1F1F1" height="118.4375" id="Product" rx="2.5" ry="2.5" style="stroke:#181818;stroke-width:0.5;" width="138" x="221.6956" y="644"/><ellipse cx="262.3456" cy="660" fill="#ADD1B2" rx="11" ry="11" style="stroke:#181818;stroke-width:1.0;"/><path d="M265.1112,655.875 Q265.2675,655.6563 265.455,655.5469 Q265.6425,655.4375 265.8612,655.4375 Q266.2362,655.4375 266.4706,655.7031 Q266.705,655.9531 266.705,656.5625 L266.705,658.0156 Q266.705,658.625 266.4706,658.8906 Q266.2362,659.1563 265.8612,659.1563 Q265.5175,659.1563 265.3144,658.9531 Q265.1112,658.7656 265.0019,658.25 Q264.955,657.8906 264.7675,657.7031 Q264.4394,657.3281 263.83,657.1094 Q263.2206,656.8906 262.5956,656.8906 Q261.83,656.8906 261.1894,657.2188 Q260.5644,657.5469 260.0644,658.2969 Q259.58,659.0469 259.58,660.0781 L259.58,661.1719 Q259.58,662.4063 260.4706,663.2344 Q261.3612,664.0469 262.955,664.0469 Q263.8925,664.0469 264.5487,663.7969 Q264.9394,663.6406 265.3612,663.2031 Q265.6269,662.9375 265.7675,662.8594 Q265.9237,662.7813 266.1269,662.7813 Q266.455,662.7813 266.705,663.0469 Q266.9706,663.2969 266.9706,663.6406 Q266.9706,663.9844 266.6269,664.3906 Q266.1269,664.9688 265.33,665.2969 Q264.2519,665.75 262.955,665.75 Q261.4394,665.75 260.2362,665.125 Q259.2519,664.625 258.5644,663.5625 Q257.8769,662.4844 257.8769,661.2031 L257.8769,660.0469 Q257.8769,658.7188 258.4862,657.5781 Q259.1112,656.4219 260.205,655.8125 Q261.2987,655.1875 262.5331,655.1875 Q263.2675,655.1875 263.9081,655.3594 Q264.5644,655.5156 265.1112,655.875 Z " fill="#000000"/><text fill="#000000" font-family="sans-serif" font-size="14" lengthAdjust="spacing" textLength="49" x="282.0456" y="665.7285">Product</text><line style="stroke:#181818;stroke-width:0.5;" x1="222.6956" x2="358.6956" y1="676" y2="676"/><ellipse cx="232.6956" cy="690.3047" fill="none" rx="3" ry="3" style="stroke:#038048;stroke-width:1.0;"/><text fill="#000000" font-family="sans-serif" font-size="14" lengthAdjust="spacing" textLength="46" x="241.6956" y="694.5332">id: guid</text><ellipse cx="232.6956" cy="707.9141" fill="none" rx="3" ry="3" style="stroke:#038048;stroke-width:1.0;"/><text fill="#000000" font-family="sans-serif" font-size="14" lengthAdjust="spacing" textLength="78" x="241.6956" y="712.1426">name: string</text><ellipse cx="232.6956" cy="725.5234" fill="none" rx="3" ry="3" style="stroke:#038048;stroke-width:1.0;"/><text fill="#000000" font-family="sans-serif" font-size="14" lengthAdjust="spacing" textLength="87" x="241.6956" y="729.752">price: decimal</text><ellipse cx="232.6956" cy="743.1328" fill="none" rx="3" ry="3" style="stroke:#038048;stroke-width:1.0;"/><text fill="#000000" font-family="sans-serif" font-size="14" lengthAdjust="spacing" textLength="112" x="241.6956" y="747.3613">description: string</text><line style="stroke:#181818;stroke-width:0.5;" x1="222.6956" x2="358.6956" y1="754.4375" y2="754.4375"/></g><!--class ShoppingCart--><g id="elem_ShoppingCart"><rect codeLine="8" fill="#F1F1F1" height="65.6094" id="ShoppingCart" rx="2.5" ry="2.5" style="stroke:#181818;stroke-width:0.5;" width="119" x="101.1956" y="334"/><ellipse cx="116.1956" cy="350" fill="#ADD1B2" rx="11" ry="11" style="stroke:#181818;stroke-width:1.0;"/><path d="M118.9612,345.875 Q119.1175,345.6563 119.305,345.5469 Q119.4925,345.4375 119.7112,345.4375 Q120.0862,345.4375 120.3206,345.7031 Q120.555,345.9531 120.555,346.5625 L120.555,348.0156 Q120.555,348.625 120.3206,348.8906 Q120.0862,349.1563 119.7112,349.1563 Q119.3675,349.1563 119.1644,348.9531 Q118.9612,348.7656 118.8519,348.25 Q118.805,347.8906 118.6175,347.7031 Q118.2894,347.3281 117.68,347.1094 Q117.0706,346.8906 116.4456,346.8906 Q115.68,346.8906 115.0394,347.2188 Q114.4144,347.5469 113.9144,348.2969 Q113.43,349.0469 113.43,350.0781 L113.43,351.1719 Q113.43,352.4063 114.3206,353.2344 Q115.2112,354.0469 116.805,354.0469 Q117.7425,354.0469 118.3987,353.7969 Q118.7894,353.6406 119.2112,353.2031 Q119.4769,352.9375 119.6175,352.8594 Q119.7737,352.7813 119.9769,352.7813 Q120.305,352.7813 120.555,353.0469 Q120.8206,353.2969 120.8206,353.6406 Q120.8206,353.9844 120.4769,354.3906 Q119.9769,354.9688 119.18,355.2969 Q118.1019,355.75 116.805,355.75 Q115.2894,355.75 114.0862,355.125 Q113.1019,354.625 112.4144,353.5625 Q111.7269,352.4844 111.7269,351.2031 L111.7269,350.0469 Q111.7269,348.7188 112.3362,347.5781 Q112.9612,346.4219 114.055,345.8125 Q115.1487,345.1875 116.3831,345.1875 Q117.1175,345.1875 117.7581,345.3594 Q118.4144,345.5156 118.9612,345.875 Z " fill="#000000"/><text fill="#000000" font-family="sans-serif" font-size="14" lengthAdjust="spacing" textLength="87" x="130.1956" y="355.7285">ShoppingCart</text><line style="stroke:#181818;stroke-width:0.5;" x1="102.1956" x2="219.1956" y1="366" y2="366"/><ellipse cx="112.1956" cy="380.3047" fill="none" rx="3" ry="3" style="stroke:#038048;stroke-width:1.0;"/><text fill="#000000" font-family="sans-serif" font-size="14" lengthAdjust="spacing" textLength="74" x="121.1956" y="384.5332">userId: guid</text><line style="stroke:#181818;stroke-width:0.5;" x1="102.1956" x2="219.1956" y1="391.6094" y2="391.6094"/></g><!--class User--><g id="elem_User"><rect codeLine="12" fill="#F1F1F1" height="100.8281" id="User" rx="2.5" ry="2.5" style="stroke:#181818;stroke-width:0.5;" width="104" x="408.6956" y="7"/><ellipse cx="443.0456" cy="23" fill="#ADD1B2" rx="11" ry="11" style="stroke:#181818;stroke-width:1.0;"/><path d="M445.8112,18.875 Q445.9675,18.6563 446.155,18.5469 Q446.3425,18.4375 446.5612,18.4375 Q446.9362,18.4375 447.1706,18.7031 Q447.405,18.9531 447.405,19.5625 L447.405,21.0156 Q447.405,21.625 447.1706,21.8906 Q446.9362,22.1563 446.5612,22.1563 Q446.2175,22.1563 446.0144,21.9531 Q445.8112,21.7656 445.7019,21.25 Q445.655,20.8906 445.4675,20.7031 Q445.1394,20.3281 444.53,20.1094 Q443.9206,19.8906 443.2956,19.8906 Q442.53,19.8906 441.8894,20.2188 Q441.2644,20.5469 440.7644,21.2969 Q440.28,22.0469 440.28,23.0781 L440.28,24.1719 Q440.28,25.4063 441.1706,26.2344 Q442.0612,27.0469 443.655,27.0469 Q444.5925,27.0469 445.2487,26.7969 Q445.6394,26.6406 446.0612,26.2031 Q446.3269,25.9375 446.4675,25.8594 Q446.6237,25.7813 446.8269,25.7813 Q447.155,25.7813 447.405,26.0469 Q447.6706,26.2969 447.6706,26.6406 Q447.6706,26.9844 447.3269,27.3906 Q446.8269,27.9688 446.03,28.2969 Q444.9519,28.75 443.655,28.75 Q442.1394,28.75 440.9362,28.125 Q439.9519,27.625 439.2644,26.5625 Q438.5769,25.4844 438.5769,24.2031 L438.5769,23.0469 Q438.5769,21.7188 439.1862,20.5781 Q439.8112,19.4219 440.905,18.8125 Q441.9987,18.1875 443.2331,18.1875 Q443.9675,18.1875 444.6081,18.3594 Q445.2644,18.5156 445.8112,18.875 Z " fill="#000000"/><text fill="#000000" font-family="sans-serif" font-size="14" lengthAdjust="spacing" textLength="29" x="461.3456" y="28.7285">User</text><line style="stroke:#181818;stroke-width:0.5;" x1="409.6956" x2="511.6956" y1="39" y2="39"/><ellipse cx="419.6956" cy="53.3047" fill="none" rx="3" ry="3" style="stroke:#038048;stroke-width:1.0;"/><text fill="#000000" font-family="sans-serif" font-size="14" lengthAdjust="spacing" textLength="46" x="428.6956" y="57.5332">id: guid</text><ellipse cx="419.6956" cy="70.9141" fill="none" rx="3" ry="3" style="stroke:#038048;stroke-width:1.0;"/><text fill="#000000" font-family="sans-serif" font-size="14" lengthAdjust="spacing" textLength="78" x="428.6956" y="75.1426">name: string</text><ellipse cx="419.6956" cy="88.5234" fill="none" rx="3" ry="3" style="stroke:#038048;stroke-width:1.0;"/><text fill="#000000" font-family="sans-serif" font-size="14" lengthAdjust="spacing" textLength="76" x="428.6956" y="92.752">email: string</text><line style="stroke:#181818;stroke-width:0.5;" x1="409.6956" x2="511.6956" y1="99.8281" y2="99.8281"/></g><!--class Order--><g id="elem_Order"><rect codeLine="17" fill="#F1F1F1" height="118.4375" id="Order" rx="2.5" ry="2.5" style="stroke:#181818;stroke-width:0.5;" width="157" x="382.1956" y="186"/><ellipse cx="437.9456" cy="202" fill="#ADD1B2" rx="11" ry="11" style="stroke:#181818;stroke-width:1.0;"/><path d="M440.7112,197.875 Q440.8675,197.6563 441.055,197.5469 Q441.2425,197.4375 441.4612,197.4375 Q441.8362,197.4375 442.0706,197.7031 Q442.305,197.9531 442.305,198.5625 L442.305,200.0156 Q442.305,200.625 442.0706,200.8906 Q441.8362,201.1563 441.4612,201.1563 Q441.1175,201.1563 440.9144,200.9531 Q440.7112,200.7656 440.6019,200.25 Q440.555,199.8906 440.3675,199.7031 Q440.0394,199.3281 439.43,199.1094 Q438.8206,198.8906 438.1956,198.8906 Q437.43,198.8906 436.7894,199.2188 Q436.1644,199.5469 435.6644,200.2969 Q435.18,201.0469 435.18,202.0781 L435.18,203.1719 Q435.18,204.4063 436.0706,205.2344 Q436.9612,206.0469 438.555,206.0469 Q439.4925,206.0469 440.1487,205.7969 Q440.5394,205.6406 440.9612,205.2031 Q441.2269,204.9375 441.3675,204.8594 Q441.5237,204.7813 441.7269,204.7813 Q442.055,204.7813 442.305,205.0469 Q442.5706,205.2969 442.5706,205.6406 Q442.5706,205.9844 442.2269,206.3906 Q441.7269,206.9688 440.93,207.2969 Q439.8519,207.75 438.555,207.75 Q437.0394,207.75 435.8362,207.125 Q434.8519,206.625 434.1644,205.5625 Q433.4769,204.4844 433.4769,203.2031 L433.4769,202.0469 Q433.4769,200.7188 434.0862,199.5781 Q434.7112,198.4219 435.805,197.8125 Q436.8987,197.1875 438.1331,197.1875 Q438.8675,197.1875 439.5081,197.3594 Q440.1644,197.5156 440.7112,197.875 Z " fill="#000000"/><text fill="#000000" font-family="sans-serif" font-size="14" lengthAdjust="spacing" textLength="37" x="458.4456" y="207.7285">Order</text><line style="stroke:#181818;stroke-width:0.5;" x1="383.1956" x2="538.1956" y1="218" y2="218"/><ellipse cx="393.1956" cy="232.3047" fill="none" rx="3" ry="3" style="stroke:#038048;stroke-width:1.0;"/><text fill="#000000" font-family="sans-serif" font-size="14" lengthAdjust="spacing" textLength="46" x="402.1956" y="236.5332">id: guid</text><ellipse cx="393.1956" cy="249.9141" fill="none" rx="3" ry="3" style="stroke:#038048;stroke-width:1.0;"/><text fill="#000000" font-family="sans-serif" font-size="14" lengthAdjust="spacing" textLength="74" x="402.1956" y="254.1426">userId: guid</text><ellipse cx="393.1956" cy="267.5234" fill="none" rx="3" ry="3" style="stroke:#038048;stroke-width:1.0;"/><text fill="#000000" font-family="sans-serif" font-size="14" lengthAdjust="spacing" textLength="131" x="402.1956" y="271.752">totalAmount: decimal</text><ellipse cx="393.1956" cy="285.1328" fill="none" rx="3" ry="3" style="stroke:#038048;stroke-width:1.0;"/><text fill="#000000" font-family="sans-serif" font-size="14" lengthAdjust="spacing" textLength="81" x="402.1956" y="289.3613">status: string</text><line style="stroke:#181818;stroke-width:0.5;" x1="383.1956" x2="538.1956" y1="296.4375" y2="296.4375"/></g><!--class OrderItem--><g id="elem_OrderItem"><rect codeLine="23" fill="#F1F1F1" height="118.4375" id="OrderItem" rx="2.5" ry="2.5" style="stroke:#181818;stroke-width:0.5;" width="120" x="230.6956" y="439"/><ellipse cx="256.9456" cy="455" fill="#ADD1B2" rx="11" ry="11" style="stroke:#181818;stroke-width:1.0;"/><path d="M259.7112,450.875 Q259.8675,450.6563 260.055,450.5469 Q260.2425,450.4375 260.4612,450.4375 Q260.8362,450.4375 261.0706,450.7031 Q261.305,450.9531 261.305,451.5625 L261.305,453.0156 Q261.305,453.625 261.0706,453.8906 Q260.8362,454.1563 260.4612,454.1563 Q260.1175,454.1563 259.9144,453.9531 Q259.7112,453.7656 259.6019,453.25 Q259.555,452.8906 259.3675,452.7031 Q259.0394,452.3281 258.43,452.1094 Q257.8206,451.8906 257.1956,451.8906 Q256.43,451.8906 255.7894,452.2188 Q255.1644,452.5469 254.6644,453.2969 Q254.18,454.0469 254.18,455.0781 L254.18,456.1719 Q254.18,457.4063 255.0706,458.2344 Q255.9612,459.0469 257.555,459.0469 Q258.4925,459.0469 259.1487,458.7969 Q259.5394,458.6406 259.9612,458.2031 Q260.2269,457.9375 260.3675,457.8594 Q260.5237,457.7813 260.7269,457.7813 Q261.055,457.7813 261.305,458.0469 Q261.5706,458.2969 261.5706,458.6406 Q261.5706,458.9844 261.2269,459.3906 Q260.7269,459.9688 259.93,460.2969 Q258.8519,460.75 257.555,460.75 Q256.0394,460.75 254.8362,460.125 Q253.8519,459.625 253.1644,458.5625 Q252.4769,457.4844 252.4769,456.2031 L252.4769,455.0469 Q252.4769,453.7188 253.0862,452.5781 Q253.7112,451.4219 254.805,450.8125 Q255.8987,450.1875 257.1331,450.1875 Q257.8675,450.1875 258.5081,450.3594 Q259.1644,450.5156 259.7112,450.875 Z " fill="#000000"/><text fill="#000000" font-family="sans-serif" font-size="14" lengthAdjust="spacing" textLength="63" x="273.4456" y="460.7285">OrderItem</text><line style="stroke:#181818;stroke-width:0.5;" x1="231.6956" x2="349.6956" y1="471" y2="471"/><ellipse cx="241.6956" cy="485.3047" fill="none" rx="3" ry="3" style="stroke:#038048;stroke-width:1.0;"/><text fill="#000000" font-family="sans-serif" font-size="14" lengthAdjust="spacing" textLength="80" x="250.6956" y="489.5332">orderId: guid</text><ellipse cx="241.6956" cy="502.9141" fill="none" rx="3" ry="3" style="stroke:#038048;stroke-width:1.0;"/><text fill="#000000" font-family="sans-serif" font-size="14" lengthAdjust="spacing" textLength="94" x="250.6956" y="507.1426">productId: guid</text><ellipse cx="241.6956" cy="520.5234" fill="none" rx="3" ry="3" style="stroke:#038048;stroke-width:1.0;"/><text fill="#000000" font-family="sans-serif" font-size="14" lengthAdjust="spacing" textLength="73" x="250.6956" y="524.752">quantity: int</text><ellipse cx="241.6956" cy="538.1328" fill="none" rx="3" ry="3" style="stroke:#038048;stroke-width:1.0;"/><text fill="#000000" font-family="sans-serif" font-size="14" lengthAdjust="spacing" textLength="87" x="250.6956" y="542.3613">price: decimal</text><line style="stroke:#181818;stroke-width:0.5;" x1="231.6956" x2="349.6956" y1="549.4375" y2="549.4375"/></g><!--class Payment--><g id="elem_Payment"><rect codeLine="29" fill="#F1F1F1" height="118.4375" id="Payment" rx="2.5" ry="2.5" style="stroke:#181818;stroke-width:0.5;" width="170" x="385.6956" y="439"/><ellipse cx="438.9456" cy="455" fill="#ADD1B2" rx="11" ry="11" style="stroke:#181818;stroke-width:1.0;"/><path d="M441.7112,450.875 Q441.8675,450.6563 442.055,450.5469 Q442.2425,450.4375 442.4612,450.4375 Q442.8362,450.4375 443.0706,450.7031 Q443.305,450.9531 443.305,451.5625 L443.305,453.0156 Q443.305,453.625 443.0706,453.8906 Q442.8362,454.1563 442.4612,454.1563 Q442.1175,454.1563 441.9144,453.9531 Q441.7112,453.7656 441.6019,453.25 Q441.555,452.8906 441.3675,452.7031 Q441.0394,452.3281 440.43,452.1094 Q439.8206,451.8906 439.1956,451.8906 Q438.43,451.8906 437.7894,452.2188 Q437.1644,452.5469 436.6644,453.2969 Q436.18,454.0469 436.18,455.0781 L436.18,456.1719 Q436.18,457.4063 437.0706,458.2344 Q437.9612,459.0469 439.555,459.0469 Q440.4925,459.0469 441.1487,458.7969 Q441.5394,458.6406 441.9612,458.2031 Q442.2269,457.9375 442.3675,457.8594 Q442.5237,457.7813 442.7269,457.7813 Q443.055,457.7813 443.305,458.0469 Q443.5706,458.2969 443.5706,458.6406 Q443.5706,458.9844 443.2269,459.3906 Q442.7269,459.9688 441.93,460.2969 Q440.8519,460.75 439.555,460.75 Q438.0394,460.75 436.8362,460.125 Q435.8519,459.625 435.1644,458.5625 Q434.4769,457.4844 434.4769,456.2031 L434.4769,455.0469 Q434.4769,453.7188 435.0862,452.5781 Q435.7112,451.4219 436.805,450.8125 Q437.8987,450.1875 439.1331,450.1875 Q439.8675,450.1875 440.5081,450.3594 Q441.1644,450.5156 441.7112,450.875 Z " fill="#000000"/><text fill="#000000" font-family="sans-serif" font-size="14" lengthAdjust="spacing" textLength="55" x="459.4456" y="460.7285">Payment</text><line style="stroke:#181818;stroke-width:0.5;" x1="386.6956" x2="554.6956" y1="471" y2="471"/><ellipse cx="396.6956" cy="485.3047" fill="none" rx="3" ry="3" style="stroke:#038048;stroke-width:1.0;"/><text fill="#000000" font-family="sans-serif" font-size="14" lengthAdjust="spacing" textLength="80" x="405.6956" y="489.5332">orderId: guid</text><ellipse cx="396.6956" cy="502.9141" fill="none" rx="3" ry="3" style="stroke:#038048;stroke-width:1.0;"/><text fill="#000000" font-family="sans-serif" font-size="14" lengthAdjust="spacing" textLength="103" x="405.6956" y="507.1426">amount: decimal</text><ellipse cx="396.6956" cy="520.5234" fill="none" rx="3" ry="3" style="stroke:#038048;stroke-width:1.0;"/><text fill="#000000" font-family="sans-serif" font-size="14" lengthAdjust="spacing" textLength="144" x="405.6956" y="524.752">paymentMethod: string</text><ellipse cx="396.6956" cy="538.1328" fill="none" rx="3" ry="3" style="stroke:#038048;stroke-width:1.0;"/><text fill="#000000" font-family="sans-serif" font-size="14" lengthAdjust="spacing" textLength="81" x="405.6956" y="542.3613">status: string</text><line style="stroke:#181818;stroke-width:0.5;" x1="386.6956" x2="554.6956" y1="549.4375" y2="549.4375"/></g><!--class Address--><g id="elem_Address"><rect codeLine="35" fill="#F1F1F1" height="136.0469" id="Address" rx="2.5" ry="2.5" style="stroke:#181818;stroke-width:0.5;" width="120" x="590.6956" y="430"/><ellipse cx="621.8956" cy="446" fill="#ADD1B2" rx="11" ry="11" style="stroke:#181818;stroke-width:1.0;"/><path d="M624.6612,441.875 Q624.8175,441.6563 625.005,441.5469 Q625.1925,441.4375 625.4112,441.4375 Q625.7862,441.4375 626.0206,441.7031 Q626.255,441.9531 626.255,442.5625 L626.255,444.0156 Q626.255,444.625 626.0206,444.8906 Q625.7862,445.1563 625.4112,445.1563 Q625.0675,445.1563 624.8644,444.9531 Q624.6612,444.7656 624.5519,444.25 Q624.505,443.8906 624.3175,443.7031 Q623.9894,443.3281 623.38,443.1094 Q622.7706,442.8906 622.1456,442.8906 Q621.38,442.8906 620.7394,443.2188 Q620.1144,443.5469 619.6144,444.2969 Q619.13,445.0469 619.13,446.0781 L619.13,447.1719 Q619.13,448.4063 620.0206,449.2344 Q620.9112,450.0469 622.505,450.0469 Q623.4425,450.0469 624.0987,449.7969 Q624.4894,449.6406 624.9112,449.2031 Q625.1769,448.9375 625.3175,448.8594 Q625.4737,448.7813 625.6769,448.7813 Q626.005,448.7813 626.255,449.0469 Q626.5206,449.2969 626.5206,449.6406 Q626.5206,449.9844 626.1769,450.3906 Q625.6769,450.9688 624.88,451.2969 Q623.8019,451.75 622.505,451.75 Q620.9894,451.75 619.7862,451.125 Q618.8019,450.625 618.1144,449.5625 Q617.4269,448.4844 617.4269,447.2031 L617.4269,446.0469 Q617.4269,444.7188 618.0362,443.5781 Q618.6612,442.4219 619.755,441.8125 Q620.8487,441.1875 622.0831,441.1875 Q622.8175,441.1875 623.4581,441.3594 Q624.1144,441.5156 624.6612,441.875 Z " fill="#000000"/><text fill="#000000" font-family="sans-serif" font-size="14" lengthAdjust="spacing" textLength="52" x="639.4956" y="451.7285">Address</text><line style="stroke:#181818;stroke-width:0.5;" x1="591.6956" x2="709.6956" y1="462" y2="462"/><ellipse cx="601.6956" cy="476.3047" fill="none" rx="3" ry="3" style="stroke:#038048;stroke-width:1.0;"/><text fill="#000000" font-family="sans-serif" font-size="14" lengthAdjust="spacing" textLength="79" x="610.6956" y="480.5332">street: string</text><ellipse cx="601.6956" cy="493.9141" fill="none" rx="3" ry="3" style="stroke:#038048;stroke-width:1.0;"/><text fill="#000000" font-family="sans-serif" font-size="14" lengthAdjust="spacing" textLength="64" x="610.6956" y="498.1426">city: string</text><ellipse cx="601.6956" cy="511.5234" fill="none" rx="3" ry="3" style="stroke:#038048;stroke-width:1.0;"/><text fill="#000000" font-family="sans-serif" font-size="14" lengthAdjust="spacing" textLength="74" x="610.6956" y="515.752">state: string</text><ellipse cx="601.6956" cy="529.1328" fill="none" rx="3" ry="3" style="stroke:#038048;stroke-width:1.0;"/><text fill="#000000" font-family="sans-serif" font-size="14" lengthAdjust="spacing" textLength="94" x="610.6956" y="533.3613">zipCode: string</text><ellipse cx="601.6956" cy="546.7422" fill="none" rx="3" ry="3" style="stroke:#038048;stroke-width:1.0;"/><text fill="#000000" font-family="sans-serif" font-size="14" lengthAdjust="spacing" textLength="90" x="610.6956" y="550.9707">country: string</text><line style="stroke:#181818;stroke-width:0.5;" x1="591.6956" x2="709.6956" y1="558.0469" y2="558.0469"/></g><!--class Review--><g id="elem_Review"><rect codeLine="42" fill="#F1F1F1" height="136.0469" id="Review" rx="2.5" ry="2.5" style="stroke:#181818;stroke-width:0.5;" width="126" x="120.6956" y="840"/><ellipse cx="157.7456" cy="856" fill="#ADD1B2" rx="11" ry="11" style="stroke:#181818;stroke-width:1.0;"/><path d="M160.5112,851.875 Q160.6675,851.6563 160.855,851.5469 Q161.0425,851.4375 161.2612,851.4375 Q161.6362,851.4375 161.8706,851.7031 Q162.105,851.9531 162.105,852.5625 L162.105,854.0156 Q162.105,854.625 161.8706,854.8906 Q161.6362,855.1563 161.2612,855.1563 Q160.9175,855.1563 160.7144,854.9531 Q160.5112,854.7656 160.4019,854.25 Q160.355,853.8906 160.1675,853.7031 Q159.8394,853.3281 159.23,853.1094 Q158.6206,852.8906 157.9956,852.8906 Q157.23,852.8906 156.5894,853.2188 Q155.9644,853.5469 155.4644,854.2969 Q154.98,855.0469 154.98,856.0781 L154.98,857.1719 Q154.98,858.4063 155.8706,859.2344 Q156.7612,860.0469 158.355,860.0469 Q159.2925,860.0469 159.9487,859.7969 Q160.3394,859.6406 160.7612,859.2031 Q161.0269,858.9375 161.1675,858.8594 Q161.3237,858.7813 161.5269,858.7813 Q161.855,858.7813 162.105,859.0469 Q162.3706,859.2969 162.3706,859.6406 Q162.3706,859.9844 162.0269,860.3906 Q161.5269,860.9688 160.73,861.2969 Q159.6519,861.75 158.355,861.75 Q156.8394,861.75 155.6362,861.125 Q154.6519,860.625 153.9644,859.5625 Q153.2769,858.4844 153.2769,857.2031 L153.2769,856.0469 Q153.2769,854.7188 153.8862,853.5781 Q154.5112,852.4219 155.605,851.8125 Q156.6987,851.1875 157.9331,851.1875 Q158.6675,851.1875 159.3081,851.3594 Q159.9644,851.5156 160.5112,851.875 Z " fill="#000000"/><text fill="#000000" font-family="sans-serif" font-size="14" lengthAdjust="spacing" textLength="45" x="176.6456" y="861.7285">Review</text><line style="stroke:#181818;stroke-width:0.5;" x1="121.6956" x2="245.6956" y1="872" y2="872"/><ellipse cx="131.6956" cy="886.3047" fill="none" rx="3" ry="3" style="stroke:#038048;stroke-width:1.0;"/><text fill="#000000" font-family="sans-serif" font-size="14" lengthAdjust="spacing" textLength="46" x="140.6956" y="890.5332">id: guid</text><ellipse cx="131.6956" cy="903.9141" fill="none" rx="3" ry="3" style="stroke:#038048;stroke-width:1.0;"/><text fill="#000000" font-family="sans-serif" font-size="14" lengthAdjust="spacing" textLength="94" x="140.6956" y="908.1426">productId: guid</text><ellipse cx="131.6956" cy="921.5234" fill="none" rx="3" ry="3" style="stroke:#038048;stroke-width:1.0;"/><text fill="#000000" font-family="sans-serif" font-size="14" lengthAdjust="spacing" textLength="74" x="140.6956" y="925.752">userId: guid</text><ellipse cx="131.6956" cy="939.1328" fill="none" rx="3" ry="3" style="stroke:#038048;stroke-width:1.0;"/><text fill="#000000" font-family="sans-serif" font-size="14" lengthAdjust="spacing" textLength="59" x="140.6956" y="943.3613">rating: int</text><ellipse cx="131.6956" cy="956.7422" fill="none" rx="3" ry="3" style="stroke:#038048;stroke-width:1.0;"/><text fill="#000000" font-family="sans-serif" font-size="14" lengthAdjust="spacing" textLength="100" x="140.6956" y="960.9707">comment: string</text><line style="stroke:#181818;stroke-width:0.5;" x1="121.6956" x2="245.6956" y1="968.0469" y2="968.0469"/></g><!--class Wishlist--><g id="elem_Wishlist"><rect codeLine="49" fill="#F1F1F1" height="83.2188" id="Wishlist" rx="2.5" ry="2.5" style="stroke:#181818;stroke-width:0.5;" width="105" x="345.1956" y="866.5"/><ellipse cx="371.4456" cy="882.5" fill="#ADD1B2" rx="11" ry="11" style="stroke:#181818;stroke-width:1.0;"/><path d="M374.2112,878.375 Q374.3675,878.1563 374.555,878.0469 Q374.7425,877.9375 374.9612,877.9375 Q375.3362,877.9375 375.5706,878.2031 Q375.805,878.4531 375.805,879.0625 L375.805,880.5156 Q375.805,881.125 375.5706,881.3906 Q375.3362,881.6563 374.9612,881.6563 Q374.6175,881.6563 374.4144,881.4531 Q374.2112,881.2656 374.1019,880.75 Q374.055,880.3906 373.8675,880.2031 Q373.5394,879.8281 372.93,879.6094 Q372.3206,879.3906 371.6956,879.3906 Q370.93,879.3906 370.2894,879.7188 Q369.6644,880.0469 369.1644,880.7969 Q368.68,881.5469 368.68,882.5781 L368.68,883.6719 Q368.68,884.9063 369.5706,885.7344 Q370.4612,886.5469 372.055,886.5469 Q372.9925,886.5469 373.6487,886.2969 Q374.0394,886.1406 374.4612,885.7031 Q374.7269,885.4375 374.8675,885.3594 Q375.0237,885.2813 375.2269,885.2813 Q375.555,885.2813 375.805,885.5469 Q376.0706,885.7969 376.0706,886.1406 Q376.0706,886.4844 375.7269,886.8906 Q375.2269,887.4688 374.43,887.7969 Q373.3519,888.25 372.055,888.25 Q370.5394,888.25 369.3362,887.625 Q368.3519,887.125 367.6644,886.0625 Q366.9769,884.9844 366.9769,883.7031 L366.9769,882.5469 Q366.9769,881.2188 367.5862,880.0781 Q368.2112,878.9219 369.305,878.3125 Q370.3987,877.6875 371.6331,877.6875 Q372.3675,877.6875 373.0081,877.8594 Q373.6644,878.0156 374.2112,878.375 Z " fill="#000000"/><text fill="#000000" font-family="sans-serif" font-size="14" lengthAdjust="spacing" textLength="48" x="387.9456" y="888.2285">Wishlist</text><line style="stroke:#181818;stroke-width:0.5;" x1="346.1956" x2="449.1956" y1="898.5" y2="898.5"/><ellipse cx="356.1956" cy="912.8047" fill="none" rx="3" ry="3" style="stroke:#038048;stroke-width:1.0;"/><text fill="#000000" font-family="sans-serif" font-size="14" lengthAdjust="spacing" textLength="46" x="365.1956" y="917.0332">id: guid</text><ellipse cx="356.1956" cy="930.4141" fill="none" rx="3" ry="3" style="stroke:#038048;stroke-width:1.0;"/><text fill="#000000" font-family="sans-serif" font-size="14" lengthAdjust="spacing" textLength="79" x="365.1956" y="934.6426">Name: string</text><line style="stroke:#181818;stroke-width:0.5;" x1="346.1956" x2="449.1956" y1="941.7188" y2="941.7188"/></g><!--class Category--><g id="elem_Category"><rect codeLine="53" fill="#F1F1F1" height="100.8281" id="Category" rx="2.5" ry="2.5" style="stroke:#181818;stroke-width:0.5;" width="138" x="745.6956" y="447.5"/><ellipse cx="782.2956" cy="463.5" fill="#ADD1B2" rx="11" ry="11" style="stroke:#181818;stroke-width:1.0;"/><path d="M785.0612,459.375 Q785.2175,459.1563 785.405,459.0469 Q785.5925,458.9375 785.8112,458.9375 Q786.1862,458.9375 786.4206,459.2031 Q786.655,459.4531 786.655,460.0625 L786.655,461.5156 Q786.655,462.125 786.4206,462.3906 Q786.1862,462.6563 785.8112,462.6563 Q785.4675,462.6563 785.2644,462.4531 Q785.0612,462.2656 784.9519,461.75 Q784.905,461.3906 784.7175,461.2031 Q784.3894,460.8281 783.78,460.6094 Q783.1706,460.3906 782.5456,460.3906 Q781.78,460.3906 781.1394,460.7188 Q780.5144,461.0469 780.0144,461.7969 Q779.53,462.5469 779.53,463.5781 L779.53,464.6719 Q779.53,465.9063 780.4206,466.7344 Q781.3112,467.5469 782.905,467.5469 Q783.8425,467.5469 784.4987,467.2969 Q784.8894,467.1406 785.3112,466.7031 Q785.5769,466.4375 785.7175,466.3594 Q785.8737,466.2813 786.0769,466.2813 Q786.405,466.2813 786.655,466.5469 Q786.9206,466.7969 786.9206,467.1406 Q786.9206,467.4844 786.5769,467.8906 Q786.0769,468.4688 785.28,468.7969 Q784.2019,469.25 782.905,469.25 Q781.3894,469.25 780.1862,468.625 Q779.2019,468.125 778.5144,467.0625 Q777.8269,465.9844 777.8269,464.7031 L777.8269,463.5469 Q777.8269,462.2188 778.4362,461.0781 Q779.0612,459.9219 780.155,459.3125 Q781.2487,458.6875 782.4831,458.6875 Q783.2175,458.6875 783.8581,458.8594 Q784.5144,459.0156 785.0612,459.375 Z " fill="#000000"/><text fill="#000000" font-family="sans-serif" font-size="14" lengthAdjust="spacing" textLength="58" x="801.0956" y="469.2285">Category</text><line style="stroke:#181818;stroke-width:0.5;" x1="746.6956" x2="882.6956" y1="479.5" y2="479.5"/><ellipse cx="756.6956" cy="493.8047" fill="none" rx="3" ry="3" style="stroke:#038048;stroke-width:1.0;"/><text fill="#000000" font-family="sans-serif" font-size="14" lengthAdjust="spacing" textLength="46" x="765.6956" y="498.0332">id: guid</text><ellipse cx="756.6956" cy="511.4141" fill="none" rx="3" ry="3" style="stroke:#038048;stroke-width:1.0;"/><text fill="#000000" font-family="sans-serif" font-size="14" lengthAdjust="spacing" textLength="78" x="765.6956" y="515.6426">name: string</text><ellipse cx="756.6956" cy="529.0234" fill="none" rx="3" ry="3" style="stroke:#038048;stroke-width:1.0;"/><text fill="#000000" font-family="sans-serif" font-size="14" lengthAdjust="spacing" textLength="112" x="765.6956" y="533.252">description: string</text><line style="stroke:#181818;stroke-width:0.5;" x1="746.6956" x2="882.6956" y1="540.3281" y2="540.3281"/></g><!--link ShoppingCart to Product--><g id="link_ShoppingCart_Product"><path codeLine="60" d="M150.2556,400.02 C138.9256,440.46 125.3756,511.36 148.6956,566 C163.8456,601.48 193.2856,632.13 221.4456,655.31 " fill="none" id="ShoppingCart-Product" style="stroke:#181818;stroke-width:1.0;"/><polygon fill="#000000" points="155.0387,502.992,155.44,493.4899,149.7781,495.0688,155.0387,502.992" style="stroke:#000000;stroke-width:1.0;"/><text fill="#000000" font-family="sans-serif" font-size="13" lengthAdjust="spacing" textLength="49" x="162.6956" y="503.4951">contains</text><text fill="#000000" font-family="sans-serif" font-size="13" lengthAdjust="spacing" textLength="20" x="126.487" y="421.1466">0..*</text><text fill="#000000" font-family="sans-serif" font-size="13" lengthAdjust="spacing" textLength="20" x="193.6444" y="647.3189">0..*</text></g><!--link User to ShoppingCart--><g id="link_User_ShoppingCart"><path codeLine="61" d="M412.1656,108.25 C350.1356,171.82 244.5456,280.05 192.1356,333.77 " fill="none" id="User-ShoppingCart" style="stroke:#181818;stroke-width:1.0;"/><polygon fill="#000000" points="381.2039,150.7546,389.624,146.3328,385.4169,142.2281,381.2039,150.7546" style="stroke:#000000;stroke-width:1.0;"/><text fill="#000000" font-family="sans-serif" font-size="13" lengthAdjust="spacing" textLength="30" x="393.6956" y="152.4951">owns</text><text fill="#000000" font-family="sans-serif" font-size="13" lengthAdjust="spacing" textLength="7" x="398.4993" y="129.306">1</text><text fill="#000000" font-family="sans-serif" font-size="13" lengthAdjust="spacing" textLength="7" x="190.6363" y="323.221">1</text></g><!--link User to Order--><g id="link_User_Order"><path codeLine="62" d="M460.6956,108.21 C460.6956,132.14 460.6956,160.99 460.6956,185.92 " fill="none" id="User-Order" style="stroke:#181818;stroke-width:1.0;"/><polygon fill="#000000" points="465.6956,152.1758,468.6345,143.1307,462.7567,143.1307,465.6956,152.1758" style="stroke:#000000;stroke-width:1.0;"/><text fill="#000000" font-family="sans-serif" font-size="13" lengthAdjust="spacing" textLength="38" x="474.6956" y="152.4951">places</text><text fill="#000000" font-family="sans-serif" font-size="13" lengthAdjust="spacing" textLength="7" x="453.2472" y="129.2609">1</text><text fill="#000000" font-family="sans-serif" font-size="13" lengthAdjust="spacing" textLength="20" x="439.4769" y="175.2345">0..*</text></g><!--link User to Review--><g id="link_User_Review"><path codeLine="63" d="M408.4256,68.61 C290.2456,92.96 12.6956,159.19 12.6956,244 C12.6956,244 12.6956,244 12.6956,704 C12.6956,773.35 71.7956,831.32 120.5056,867.32 " fill="none" id="User-Review" style="stroke:#181818;stroke-width:1.0;"/><polygon fill="#000000" points="16,502.8795,21.8321,495.367,16.3026,493.3737,16,502.8795" style="stroke:#000000;stroke-width:1.0;"/><text fill="#000000" font-family="sans-serif" font-size="13" lengthAdjust="spacing" textLength="34" x="26.6956" y="503.4951">writes</text><text fill="#000000" font-family="sans-serif" font-size="13" lengthAdjust="spacing" textLength="7" x="393.5829" y="66.5793">1</text><text fill="#000000" font-family="sans-serif" font-size="13" lengthAdjust="spacing" textLength="20" x="92.5004" y="859.5074">0..*</text></g><!--link User to Wishlist--><g id="link_User_Wishlist"><path codeLine="64" d="M512.9856,66.73 C639.8656,88.16 953.6956,150.61 953.6956,244 C953.6956,244 953.6956,244 953.6956,704 C953.6956,810.55 588.8556,877.68 450.2556,899.34 " fill="none" id="User-Wishlist" style="stroke:#181818;stroke-width:1.0;"/><polygon fill="#000000" points="958.32,503.1617,961.9301,494.3629,956.0689,493.9213,958.32,503.1617" style="stroke:#000000;stroke-width:1.0;"/><text fill="#000000" font-family="sans-serif" font-size="13" lengthAdjust="spacing" textLength="21" x="967.6956" y="503.4951">has</text><text fill="#000000" font-family="sans-serif" font-size="13" lengthAdjust="spacing" textLength="7" x="520.8311" y="64.4349">1</text><text fill="#000000" font-family="sans-serif" font-size="13" lengthAdjust="spacing" textLength="20" x="458.2711" y="894.7091">0..*</text></g><!--link User to Address--><g id="link_User_Address"><path codeLine="65" d="M505.3156,108.41 C548.6456,160.48 611.5856,246.57 637.6956,334 C646.8356,364.6 650.4456,399.79 651.6356,429.62 " fill="none" id="User-Address" style="stroke:#181818;stroke-width:1.0;"/><polygon fill="#000000" points="633.7683,249.7259,632.6932,240.2763,627.3442,242.7129,633.7683,249.7259" style="stroke:#000000;stroke-width:1.0;"/><text fill="#000000" font-family="sans-serif" font-size="13" lengthAdjust="spacing" textLength="21" x="640.6956" y="250.4951">has</text><text fill="#000000" font-family="sans-serif" font-size="13" lengthAdjust="spacing" textLength="7" x="503.5841" y="129.4865">1</text><text fill="#000000" font-family="sans-serif" font-size="13" lengthAdjust="spacing" textLength="20" x="630.7013" y="419.2541">0..*</text></g><!--link Order to OrderItem--><g id="link_Order_OrderItem"><path codeLine="67" d="M408.7656,304 C400.7456,313.79 392.7756,324.01 385.6956,334 C362.0156,367.4 338.8056,407.04 321.2656,438.87 " fill="none" id="Order-OrderItem" style="stroke:#181818;stroke-width:1.0;"/><polygon fill="#000000" points="387.9743,371.3703,395.3627,365.3819,390.4317,362.1828,387.9743,371.3703" style="stroke:#000000;stroke-width:1.0;"/><text fill="#000000" font-family="sans-serif" font-size="13" lengthAdjust="spacing" textLength="49" x="399.6956" y="372.4951">contains</text><text fill="#000000" font-family="sans-serif" font-size="13" lengthAdjust="spacing" textLength="7" x="394.6636" y="326.074">1</text><text fill="#000000" font-family="sans-serif" font-size="13" lengthAdjust="spacing" textLength="20" x="303.7726" y="428.1784">0..*</text></g><!--link Order to Payment--><g id="link_Order_Payment"><path codeLine="68" d="M458.4356,304.22 C458.1256,314.15 457.8556,324.37 457.6956,334 C457.1956,363.33 455.7456,370.73 457.6956,400 C458.5356,412.63 459.9956,426.12 461.6256,438.91 " fill="none" id="Order-Payment" style="stroke:#181818;stroke-width:1.0;"/><polygon fill="#000000" points="462.814,372.1744,465.5379,363.0622,459.6617,363.2014,462.814,372.1744" style="stroke:#000000;stroke-width:1.0;"/><text fill="#000000" font-family="sans-serif" font-size="13" lengthAdjust="spacing" textLength="60" x="471.6956" y="372.4951">processes</text><text fill="#000000" font-family="sans-serif" font-size="13" lengthAdjust="spacing" textLength="7" x="450.7336" y="325.9023">1</text><text fill="#000000" font-family="sans-serif" font-size="13" lengthAdjust="spacing" textLength="7" x="453.0936" y="428.2233">1</text></g><!--link Order to Address--><g id="link_Order_Address"><path codeLine="69" d="M513.9956,304.26 C521.9556,313.92 529.7956,324.04 536.6956,334 C555.7256,361.47 554.1556,372.2 572.6956,400 C579.2956,409.89 586.6556,420 594.1456,429.79 " fill="none" id="Order-Address" style="stroke:#181818;stroke-width:1.0;"/><polygon fill="#000000" points="580.3864,371.39,577.9958,362.1848,573.0417,365.348,580.3864,371.39" style="stroke:#000000;stroke-width:1.0;"/><text fill="#000000" font-family="sans-serif" font-size="13" lengthAdjust="spacing" textLength="46" x="586.6956" y="372.4951">ships to</text><text fill="#000000" font-family="sans-serif" font-size="13" lengthAdjust="spacing" textLength="7" x="513.065" y="325.9472">1</text><text fill="#000000" font-family="sans-serif" font-size="13" lengthAdjust="spacing" textLength="7" x="580.5776" y="418.9663">1</text></g><!--link OrderItem to Product--><g id="link_OrderItem_Product"><path codeLine="70" d="M290.6956,557.17 C290.6956,584.35 290.6956,616.64 290.6956,643.82 " fill="none" id="OrderItem-Product" style="stroke:#181818;stroke-width:1.0;"/><polygon fill="#000000" points="295.6956,610.1758,298.6345,601.1307,292.7567,601.1307,295.6956,610.1758" style="stroke:#000000;stroke-width:1.0;"/><text fill="#000000" font-family="sans-serif" font-size="13" lengthAdjust="spacing" textLength="48" x="304.6956" y="610.4951">includes</text><text fill="#000000" font-family="sans-serif" font-size="13" lengthAdjust="spacing" textLength="20" x="269.4769" y="578.8462">0..*</text><text fill="#000000" font-family="sans-serif" font-size="13" lengthAdjust="spacing" textLength="7" x="283.269" y="633.1223">1</text></g><!--link Product to Review--><g id="link_Product_Review"><path codeLine="72" d="M260.0356,762.17 C247.2456,786.42 232.3256,814.74 219.0856,839.87 " fill="none" id="Product-Review" style="stroke:#181818;stroke-width:1.0;"/><polygon fill="#000000" points="246.3644,805.5991,253.1815,798.9675,247.9816,796.227,246.3644,805.5991" style="stroke:#000000;stroke-width:1.0;"/><text fill="#000000" font-family="sans-serif" font-size="13" lengthAdjust="spacing" textLength="47" x="257.6956" y="806.4951">receives</text><text fill="#000000" font-family="sans-serif" font-size="13" lengthAdjust="spacing" textLength="7" x="248.8724" y="783.8462">1</text><text fill="#000000" font-family="sans-serif" font-size="13" lengthAdjust="spacing" textLength="20" x="201.8626" y="829.0551">0..*</text></g><!--link Product to Wishlist--><g id="link_Product_Wishlist"><path codeLine="73" d="M321.3556,762.17 C338.8956,795.45 360.4656,836.37 376.1956,866.21 " fill="none" id="Product-Wishlist" style="stroke:#181818;stroke-width:1.0;"/><polygon fill="#000000" points="352.0271,805.5989,350.4093,796.227,345.2095,798.9678,352.0271,805.5989" style="stroke:#000000;stroke-width:1.0;"/><text fill="#000000" font-family="sans-serif" font-size="13" lengthAdjust="spacing" textLength="24" x="358.6956" y="806.4951">is in</text><text fill="#000000" font-family="sans-serif" font-size="13" lengthAdjust="spacing" textLength="20" x="303.8735" y="783.8462">0..*</text><text fill="#000000" font-family="sans-serif" font-size="13" lengthAdjust="spacing" textLength="20" x="351.1753" y="855.7804">0..*</text></g><!--link Category to Product--><g id="link_Category_Product"><path codeLine="75" d="M755.7156,548.78 C746.6656,555.11 737.1656,561.08 727.6956,566 C605.5256,629.44 448.5656,669.3 359.8656,688.44 " fill="none" id="Category-Product" style="stroke:#181818;stroke-width:1.0;"/><polygon fill="#000000" points="660.9805,606.8393,670.488,606.6014,668.5324,601.0584,660.9805,606.8393" style="stroke:#000000;stroke-width:1.0;"/><text fill="#000000" font-family="sans-serif" font-size="13" lengthAdjust="spacing" textLength="67" x="674.6956" y="610.4951">categorizes</text><text fill="#000000" font-family="sans-serif" font-size="13" lengthAdjust="spacing" textLength="20" x="726.8775" y="569.8398">0..*</text><text fill="#000000" font-family="sans-serif" font-size="13" lengthAdjust="spacing" textLength="20" x="367.6589" y="683.7101">0..*</text></g><!--SRC=[ZLEnRi8m4Dtp5HPZAr1PCrH2J0njKQkgisMVo4c9xTeN4A3-UurTft5845cSF3s_T_Vk8chk7DjQBLj1x5mm_poYBDckHHc_56-WP8uigbr4Z4NX8Ga26rv7J88J5WsXLXtvfoX4qF-ej34UMNFRcRGEx2OPTSnFZzvR1ZGSwvvPL7YpSaeYimm8QUBrgj6jea4_ZZYrRbnzGz0a1ns0JDJ4D7Fmk-MAa8ubGqMZCIQBBJyseEY60HyhsCHhBq2LbdbG4xsifBJWptDYMG3ARufGyL1hC8SJchMM0r1SIhJ7AzDts2CSnkSp6jprq2mdhzWBKkZcqlgLrnUwgaOtiTUl_OLALzQ-kvssntjtS6BjYspZPq-BnSECpUVfBVrl9HDQ4KVbs7CHLd-sZ3n_P18bquThLbIB6ryoKtC14vo_s4jsi4XJf2wlabLyWfEM9b6Aw3vIKVXBiWvpgZ_IgllQhVQrEnYb_Nkw2erZf1ChUFJYNVQpHINgLWR98g4JgLWGWFj0xPZ3eVNIGUV5BxBTkjmQSUJWASZ_0W00]--></g></svg>