<?xml version="1.0" encoding="us-ascii" standalone="no"?><svg xmlns="http://www.w3.org/2000/svg" xmlns:xlink="http://www.w3.org/1999/xlink" contentStyleType="text/css" height="207px" preserveAspectRatio="none" style="width:1768px;height:207px;background:#FFFFFF;" version="1.1" viewBox="0 0 1768 207" width="1768px" zoomAndPan="magnify"><defs/><g><!--cluster Product Management--><g id="cluster_Product Management"><rect fill="none" height="86" rx="2.5" ry="2.5" style="stroke:#181818;stroke-width:1.0;" width="515" x="7" y="111.5"/><text fill="#000000" font-family="sans-serif" font-size="14" font-weight="bold" lengthAdjust="spacing" textLength="150" x="189.5" y="128.0332">Product Management</text></g><!--cluster Order Management--><g id="cluster_Order Management"><rect fill="none" height="91" rx="2.5" ry="2.5" style="stroke:#181818;stroke-width:1.0;" width="374" x="546" y="109"/><text fill="#000000" font-family="sans-serif" font-size="14" font-weight="bold" lengthAdjust="spacing" textLength="136" x="665" y="125.5332">Order Management</text></g><!--cluster User Management--><g id="cluster_User Management"><rect fill="none" height="94" rx="2.5" ry="2.5" style="stroke:#181818;stroke-width:1.0;" width="377" x="944" y="107.5"/><text fill="#000000" font-family="sans-serif" font-size="14" font-weight="bold" lengthAdjust="spacing" textLength="128" x="1068.5" y="124.0332">User Management</text></g><!--cluster Analytics--><g id="cluster_Analytics"><rect fill="none" height="93" rx="2.5" ry="2.5" style="stroke:#181818;stroke-width:1.0;" width="417" x="1345" y="108"/><text fill="#000000" font-family="sans-serif" font-size="14" font-weight="bold" lengthAdjust="spacing" textLength="62" x="1522.5" y="124.5332">Analytics</text></g><g id="elem_Add Product"><ellipse cx="438.7537" cy="164.2507" fill="#F1F1F1" rx="66.7537" ry="15.7507" style="stroke:#181818;stroke-width:0.5;"/><text fill="#000000" font-family="sans-serif" font-size="14" lengthAdjust="spacing" textLength="78" x="396.7537" y="168.7673">Add Product</text></g><g id="elem_Edit Product"><ellipse cx="269.9254" cy="164.6851" fill="#F1F1F1" rx="66.4254" ry="15.6851" style="stroke:#181818;stroke-width:0.5;"/><text fill="#000000" font-family="sans-serif" font-size="14" lengthAdjust="spacing" textLength="77" x="228.4254" y="169.2017">Edit Product</text></g><g id="elem_Delete Product"><ellipse cx="95.7859" cy="164.3572" fill="#F1F1F1" rx="72.2859" ry="16.8572" style="stroke:#181818;stroke-width:0.5;"/><text fill="#000000" font-family="sans-serif" font-size="14" lengthAdjust="spacing" textLength="94" x="45.7859" y="168.8738">Delete Product</text></g><g id="elem_View Orders"><ellipse cx="836.9254" cy="164.6851" fill="#F1F1F1" rx="66.4254" ry="15.6851" style="stroke:#181818;stroke-width:0.5;"/><text fill="#000000" font-family="sans-serif" font-size="14" lengthAdjust="spacing" textLength="77" x="795.4254" y="169.2017">View Orders</text></g><g id="elem_Update Order Status"><ellipse cx="649.0408" cy="164.7082" fill="#F1F1F1" rx="86.5408" ry="19.7082" style="stroke:#181818;stroke-width:0.5;"/><text fill="#000000" font-family="sans-serif" font-size="14" lengthAdjust="spacing" textLength="130" x="584.0408" y="168.4367">Update Order Status</text></g><g id="elem_View Users"><ellipse cx="1243.9074" cy="164.5891" fill="#F1F1F1" rx="60.9074" ry="15.5891" style="stroke:#181818;stroke-width:0.5;"/><text fill="#000000" font-family="sans-serif" font-size="14" lengthAdjust="spacing" textLength="69" x="1206.4074" y="169.1057">View Users</text></g><g id="elem_Manage User Accounts"><ellipse cx="1053.9382" cy="164.5876" fill="#F1F1F1" rx="93.4382" ry="21.0876" style="stroke:#181818;stroke-width:0.5;"/><text fill="#000000" font-family="sans-serif" font-size="14" lengthAdjust="spacing" textLength="146" x="980.9382" y="168.3162">Manage User Accounts</text></g><g id="elem_View Sales Reports"><ellipse cx="1663.169" cy="164.5338" fill="#F1F1F1" rx="83.169" ry="19.0338" style="stroke:#181818;stroke-width:0.5;"/><text fill="#000000" font-family="sans-serif" font-size="14" lengthAdjust="spacing" textLength="122" x="1602.169" y="168.2623">View Sales Reports</text></g><g id="elem_Analyze User Behavior"><ellipse cx="1453.1965" cy="164.7393" fill="#F1F1F1" rx="91.6965" ry="20.7393" style="stroke:#181818;stroke-width:0.5;"/><text fill="#000000" font-family="sans-serif" font-size="14" lengthAdjust="spacing" textLength="142" x="1382.1965" y="168.4678">Analyze User Behavior</text></g><!--entity Admin--><g id="elem_Admin"><ellipse cx="837" cy="14" fill="#F1F1F1" rx="8" ry="8" style="stroke:#181818;stroke-width:0.5;"/><path d="M837,22 L837,49 M824,30 L850,30 M837,49 L824,64 M837,49 L850,64 " fill="none" style="stroke:#181818;stroke-width:0.5;"/><text fill="#000000" font-family="sans-serif" font-size="14" lengthAdjust="spacing" textLength="39" x="817.5" y="80.0332">Admin</text></g><!--link Admin to Add Product--><g id="link_Admin_Add Product"><path d="M817.29,46.74 C769.38,50.28 643.58,62.63 546,99.5 C513.2,111.89 483.9438,130.7446 463.3038,145.4746 " fill="none" id="Admin-to-Add Product" style="stroke:#181818;stroke-width:1.0;"/><polygon fill="#181818" points="458.42,148.96,468.0694,146.9878,462.4899,146.0555,463.4221,140.476,458.42,148.96" style="stroke:#181818;stroke-width:1.0;"/></g><!--link Admin to Edit Product--><g id="link_Admin_Edit Product"><path d="M817.28,46.32 C737.85,49.86 441.46,65.12 355,99.5 C326.68,110.76 303.8648,129.9208 288.1648,145.0908 " fill="none" id="Admin-to-Edit Product" style="stroke:#181818;stroke-width:1.0;"/><polygon fill="#181818" points="283.85,149.26,293.1017,145.8828,287.4457,145.7857,287.5428,140.1297,283.85,149.26" style="stroke:#181818;stroke-width:1.0;"/></g><!--link Admin to Delete Product--><g id="link_Admin_Delete Product"><path d="M817.23,45.74 C721.57,47.1 306.36,55.5 186,99.5 C157.19,110.03 133.6805,128.3759 116.7705,143.6659 " fill="none" id="Admin-to-Delete Product" style="stroke:#181818;stroke-width:1.0;"/><polygon fill="#181818" points="112.32,147.69,121.6784,144.6208,116.0287,144.3366,116.313,138.6869,112.32,147.69" style="stroke:#181818;stroke-width:1.0;"/></g><!--link Admin to View Orders--><g id="link_Admin_View Orders"><path d="M837,83.81 C837,106.02 837,126.7 837,142.87 " fill="none" id="Admin-to-View Orders" style="stroke:#181818;stroke-width:1.0;"/><polygon fill="#181818" points="837,148.87,841,139.87,837,143.87,833,139.87,837,148.87" style="stroke:#181818;stroke-width:1.0;"/></g><!--link Admin to Update Order Status--><g id="link_Admin_Update Order Status"><path d="M817.24,57.91 C783.67,78.97 720.5319,118.6003 682.0719,142.7403 " fill="none" id="Admin-to-Update Order Status" style="stroke:#181818;stroke-width:1.0;"/><polygon fill="#181818" points="676.99,145.93,686.7393,144.5333,681.2249,143.2719,682.4864,137.7575,676.99,145.93" style="stroke:#181818;stroke-width:1.0;"/></g><!--link Admin to View Users--><g id="link_Admin_View Users"><path d="M856.85,45.3 C909.54,45.49 1056.28,50.69 1165,99.5 C1191.41,111.36 1212.2138,129.9917 1226.7738,144.9417 " fill="none" id="Admin-to-View Users" style="stroke:#181818;stroke-width:1.0;"/><polygon fill="#181818" points="1230.96,149.24,1227.5462,140.0017,1227.4715,145.6581,1221.8151,145.5833,1230.96,149.24" style="stroke:#181818;stroke-width:1.0;"/></g><!--link Admin to Manage User Accounts--><g id="link_Admin_Manage User Accounts"><path d="M856.64,56.18 C893.57,76.26 968.5085,117.0144 1014.4985,142.0144 " fill="none" id="Admin-to-Manage User Accounts" style="stroke:#181818;stroke-width:1.0;"/><polygon fill="#181818" points="1019.77,144.88,1013.7731,137.0673,1015.3771,142.492,1009.9524,144.096,1019.77,144.88" style="stroke:#181818;stroke-width:1.0;"/></g><!--link Admin to View Sales Reports--><g id="link_Admin_View Sales Reports"><path d="M856.55,45.68 C958.07,46.79 1425.55,54.35 1562,99.5 C1592.35,109.54 1618.0118,126.9535 1637.4118,142.1935 " fill="none" id="Admin-to-View Sales Reports" style="stroke:#181818;stroke-width:1.0;"/><polygon fill="#181818" points="1642.13,145.9,1637.5236,137.1948,1638.1981,142.8113,1632.5816,143.4857,1642.13,145.9" style="stroke:#181818;stroke-width:1.0;"/></g><!--link Admin to Analyze User Behavior--><g id="link_Admin_Analyze User Behavior"><path d="M856.83,45.33 C923.68,45.25 1146.36,49.04 1321,99.5 C1357.7,110.1 1391.5012,127.2721 1417.5112,142.1421 " fill="none" id="Admin-to-Analyze User Behavior" style="stroke:#181818;stroke-width:1.0;"/><polygon fill="#181818" points="1422.72,145.12,1416.892,137.1806,1418.3793,142.6384,1412.9215,144.1257,1422.72,145.12" style="stroke:#181818;stroke-width:1.0;"/></g><!--SRC=[ZOr12i8m44NtFSNGbIvw1I6YIr4iTJyaGmsaIKacYeftjwO5fQNYRD-Vzr2oyo1KestcIJBQsX3a1-zKb0mxj5XJGvPpU6JGNPf2KQnW8PI2ORWSiwtIF0itP8ZfWv_VwRrNv7-7Jvgka7PXugvQXPsxjvIC7CCeK8M__E_PLD__9GX2IXSjZ_t2ehcnbc7ENAAX04TgdUTf8RtVXyIQpdZHpdU95m00]--></g></svg>