<?xml version="1.0" encoding="us-ascii" standalone="no"?><svg xmlns="http://www.w3.org/2000/svg" xmlns:xlink="http://www.w3.org/1999/xlink" contentStyleType="text/css" height="205px" preserveAspectRatio="none" style="width:1778px;height:205px;background:#FFFFFF;" version="1.1" viewBox="0 0 1778 205" width="1778px" zoomAndPan="magnify"><defs/><g><!--cluster Content Management--><g id="cluster_Content Management"><rect fill="none" height="86" rx="2.5" ry="2.5" style="stroke:#181818;stroke-width:1.0;" width="516" x="7" y="110.5"/><text fill="#000000" font-family="sans-serif" font-size="14" font-weight="bold" lengthAdjust="spacing" textLength="151" x="189.5" y="127.0332">Content Management</text></g><!--cluster Collaboration--><g id="cluster_Collaboration"><rect fill="none" height="92" rx="2.5" ry="2.5" style="stroke:#181818;stroke-width:1.0;" width="391" x="547" y="107.5"/><text fill="#000000" font-family="sans-serif" font-size="14" font-weight="bold" lengthAdjust="spacing" textLength="94" x="695.5" y="124.0332">Collaboration</text></g><!--cluster Feedback--><g id="cluster_Feedback"><rect fill="none" height="88" rx="2.5" ry="2.5" style="stroke:#181818;stroke-width:1.0;" width="371" x="962" y="109.5"/><text fill="#000000" font-family="sans-serif" font-size="14" font-weight="bold" lengthAdjust="spacing" textLength="69" x="1113" y="126.0332">Feedback</text></g><!--cluster Notifications--><g id="cluster_Notifications"><rect fill="none" height="92" rx="2.5" ry="2.5" style="stroke:#181818;stroke-width:1.0;" width="415" x="1357" y="107.5"/><text fill="#000000" font-family="sans-serif" font-size="14" font-weight="bold" lengthAdjust="spacing" textLength="88" x="1520.5" y="124.0332">Notifications</text></g><g id="elem_Add Content"><ellipse cx="440.0842" cy="163.3168" fill="#F1F1F1" rx="67.0842" ry="15.8168" style="stroke:#181818;stroke-width:0.5;"/><text fill="#000000" font-family="sans-serif" font-size="14" lengthAdjust="spacing" textLength="79" x="397.5842" y="167.8334">Add Content</text></g><g id="elem_Edit Content"><ellipse cx="270.7537" cy="163.2507" fill="#F1F1F1" rx="66.7537" ry="15.7507" style="stroke:#181818;stroke-width:0.5;"/><text fill="#000000" font-family="sans-serif" font-size="14" lengthAdjust="spacing" textLength="78" x="228.7537" y="167.7673">Edit Content</text></g><g id="elem_Delete Content"><ellipse cx="96.1476" cy="163.4295" fill="#F1F1F1" rx="72.6476" ry="16.9295" style="stroke:#181818;stroke-width:0.5;"/><text fill="#000000" font-family="sans-serif" font-size="14" lengthAdjust="spacing" textLength="95" x="45.6476" y="167.9461">Delete Content</text></g><g id="elem_Review Content"><ellipse cx="848.1111" cy="163.7222" fill="#F1F1F1" rx="74.1111" ry="17.2222" style="stroke:#181818;stroke-width:0.5;"/><text fill="#000000" font-family="sans-serif" font-size="14" lengthAdjust="spacing" textLength="99" x="795.6111" y="168.2388">Review Content</text></g><g id="elem_Comment on Content"><ellipse cx="651.2471" cy="163.5494" fill="#F1F1F1" rx="88.2471" ry="20.0494" style="stroke:#181818;stroke-width:0.5;"/><text fill="#000000" font-family="sans-serif" font-size="14" lengthAdjust="spacing" textLength="134" x="584.2471" y="167.2779">Comment on Content</text></g><g id="elem_Submit Feedback"><ellipse cx="1237.7877" cy="163.5575" fill="#F1F1F1" rx="78.2877" ry="18.0575" style="stroke:#181818;stroke-width:0.5;"/><text fill="#000000" font-family="sans-serif" font-size="14" lengthAdjust="spacing" textLength="110" x="1181.0149" y="167.7774">Submit Feedback</text></g><g id="elem_View Feedback"><ellipse cx="1051.0109" cy="163.5022" fill="#F1F1F1" rx="73.0109" ry="17.0022" style="stroke:#181818;stroke-width:0.5;"/><text fill="#000000" font-family="sans-serif" font-size="14" lengthAdjust="spacing" textLength="96" x="1000.0109" y="168.0188">View Feedback</text></g><g id="elem_Receive Notifications"><ellipse cx="1668.9661" cy="163.2932" fill="#F1F1F1" rx="86.9661" ry="19.7932" style="stroke:#181818;stroke-width:0.5;"/><text fill="#000000" font-family="sans-serif" font-size="14" lengthAdjust="spacing" textLength="131" x="1603.4661" y="167.0217">Receive Notifications</text></g><g id="elem_Manage Notifications"><ellipse cx="1459.9661" cy="163.2932" fill="#F1F1F1" rx="86.9661" ry="19.7932" style="stroke:#181818;stroke-width:0.5;"/><text fill="#000000" font-family="sans-serif" font-size="14" lengthAdjust="spacing" textLength="131" x="1394.4661" y="167.0217">Manage Notifications</text></g><!--entity Contributor--><g id="elem_Contributor"><ellipse cx="848" cy="14" fill="#F1F1F1" rx="8" ry="8" style="stroke:#181818;stroke-width:0.5;"/><path d="M848,22 L848,49 M835,30 L861,30 M848,49 L835,64 M848,49 L861,64 " fill="none" style="stroke:#181818;stroke-width:0.5;"/><text fill="#000000" font-family="sans-serif" font-size="14" lengthAdjust="spacing" textLength="71" x="812.5" y="80.0332">Contributor</text></g><!--link Contributor to Add Content--><g id="link_Contributor_Add Content"><path d="M812.17,47.82 C754.65,52.44 638.85,65.47 547,99.5 C514.25,111.63 485.0089,130.19 464.3489,144.71 " fill="none" id="Contributor-to-Add Content" style="stroke:#181818;stroke-width:1.0;"/><polygon fill="#181818" points="459.44,148.16,469.1034,146.2576,463.5308,145.285,464.5034,139.7124,459.44,148.16" style="stroke:#181818;stroke-width:1.0;"/></g><!--link Contributor to Edit Content--><g id="link_Contributor_Edit Content"><path d="M812.44,46.99 C713.97,51.51 439.5,66.77 356,99.5 C328.3,110.36 305.986,128.5845 290.126,143.5345 " fill="none" id="Contributor-to-Edit Content" style="stroke:#181818;stroke-width:1.0;"/><polygon fill="#181818" points="285.76,147.65,295.0528,144.3874,289.3984,144.2204,289.5654,138.566,285.76,147.65" style="stroke:#181818;stroke-width:1.0;"/></g><!--link Contributor to Delete Content--><g id="link_Contributor_Delete Content"><path d="M812.37,45.99 C692.36,48.01 303.81,57.71 187,99.5 C158.05,109.86 134.2509,127.9238 117.0909,142.9738 " fill="none" id="Contributor-to-Delete Content" style="stroke:#181818;stroke-width:1.0;"/><polygon fill="#181818" points="112.58,146.93,121.9838,144.0029,116.3391,143.6331,116.7089,137.9884,112.58,146.93" style="stroke:#181818;stroke-width:1.0;"/></g><!--link Contributor to Review Content--><g id="link_Contributor_Review Content"><path d="M848,83.81 C848,105 848,124.23 848,140.3 " fill="none" id="Contributor-to-Review Content" style="stroke:#181818;stroke-width:1.0;"/><polygon fill="#181818" points="848,146.3,852,137.3,848,141.3,844,137.3,848,146.3" style="stroke:#181818;stroke-width:1.0;"/></g><!--link Contributor to Comment on Content--><g id="link_Contributor_Comment on Content"><path d="M812.12,66.78 C795.37,76.72 775.16,88.71 757,99.5 C731.41,114.69 707.5174,128.8938 686.3074,141.5038 " fill="none" id="Contributor-to-Comment on Content" style="stroke:#181818;stroke-width:1.0;"/><polygon fill="#181818" points="681.15,144.57,690.9302,143.4089,685.4478,142.0148,686.8419,136.5324,681.15,144.57" style="stroke:#181818;stroke-width:1.0;"/></g><!--link Contributor to Submit Feedback--><g id="link_Contributor_Submit Feedback"><path d="M883.65,47.48 C940.26,51.62 1053.37,63.98 1142,99.5 C1170.5,110.92 1194.7241,127.7033 1213.2741,142.2133 " fill="none" id="Contributor-to-Submit Feedback" style="stroke:#181818;stroke-width:1.0;"/><polygon fill="#181818" points="1218,145.91,1213.3755,137.2143,1214.0617,142.8294,1208.4466,143.5156,1218,145.91" style="stroke:#181818;stroke-width:1.0;"/></g><!--link Contributor to View Feedback--><g id="link_Contributor_View Feedback"><path d="M883.83,66.15 C924.23,89.44 983.7718,123.7535 1019.6818,144.4535 " fill="none" id="Contributor-to-View Feedback" style="stroke:#181818;stroke-width:1.0;"/><polygon fill="#181818" points="1024.88,147.45,1019.0803,139.4899,1020.5482,144.953,1015.0851,146.4208,1024.88,147.45" style="stroke:#181818;stroke-width:1.0;"/></g><!--link Contributor to Receive Notifications--><g id="link_Contributor_Receive Notifications"><path d="M883.87,46 C1010.52,48.11 1436.01,58.19 1565,99.5 C1595.16,109.16 1620.8568,125.5612 1640.9668,140.4412 " fill="none" id="Contributor-to-Receive Notifications" style="stroke:#181818;stroke-width:1.0;"/><polygon fill="#181818" points="1645.79,144.01,1640.9344,135.4413,1641.7707,141.036,1636.176,141.8722,1645.79,144.01" style="stroke:#181818;stroke-width:1.0;"/></g><!--link Contributor to Manage Notifications--><g id="link_Contributor_Manage Notifications"><path d="M883.52,45.26 C964.83,45.62 1170.02,51.63 1333,99.5 C1368.42,109.9 1400.763,126.7171 1425.753,141.3571 " fill="none" id="Contributor-to-Manage Notifications" style="stroke:#181818;stroke-width:1.0;"/><polygon fill="#181818" points="1430.93,144.39,1425.1864,136.3893,1426.6158,141.8626,1421.1425,143.292,1430.93,144.39" style="stroke:#181818;stroke-width:1.0;"/></g><!--SRC=[XP7B2i8m44Nt_OgXArtq5mIfkjE5Wlj9CfPWce4uhGlflvlwe5QCdTKmd73k9QY50vJi9LZLn3qBf0LzvGZo_anUO8iUAwhZciCjWpWV3w0e5Z1R6WClVFwRM1ih4yYA70aDK3SEunmg3YYMVJB7dbfBrmbFoNLV1jWdN1iYer2Vavf3e-fOvyqbFCS-oi2C53iMUxBwqURofuucsnACw8Jj-KlVQ7S7]--></g></svg>