<?xml version="1.0" encoding="us-ascii" standalone="no"?><svg xmlns="http://www.w3.org/2000/svg" xmlns:xlink="http://www.w3.org/1999/xlink" contentStyleType="text/css" height="200px" preserveAspectRatio="none" style="width:375px;height:200px;background:#FFFFFF;" version="1.1" viewBox="0 0 375 200" width="375px" zoomAndPan="magnify"><defs/><g><!--cluster Browsing--><g id="cluster_Browsing"><rect fill="none" height="87" rx="2.5" ry="2.5" style="stroke:#181818;stroke-width:1.0;" width="362" x="7" y="107.5"/><text fill="#000000" font-family="sans-serif" font-size="14" font-weight="bold" lengthAdjust="spacing" textLength="66" x="155" y="124.0332">Browsing</text></g><g id="elem_View Products"><ellipse cx="282.0039" cy="161.0008" fill="#F1F1F1" rx="70.5039" ry="16.5008" style="stroke:#181818;stroke-width:0.5;"/><text fill="#000000" font-family="sans-serif" font-size="14" lengthAdjust="spacing" textLength="89" x="234.5039" y="165.5174">View Products</text></g><g id="elem_Search Products"><ellipse cx="99.855" cy="161.171" fill="#F1F1F1" rx="76.355" ry="17.671" style="stroke:#181818;stroke-width:0.5;"/><text fill="#000000" font-family="sans-serif" font-size="14" lengthAdjust="spacing" textLength="105" x="44.6233" y="165.6255">Search Products</text></g><!--entity Guest--><g id="elem_Guest"><ellipse cx="191" cy="14" fill="#F1F1F1" rx="8" ry="8" style="stroke:#181818;stroke-width:0.5;"/><path d="M191,22 L191,49 M178,30 L204,30 M191,49 L178,64 M191,49 L204,64 " fill="none" style="stroke:#181818;stroke-width:0.5;"/><text fill="#000000" font-family="sans-serif" font-size="14" lengthAdjust="spacing" textLength="38" x="172" y="80.0332">Guest</text></g><!--link Guest to View Products--><g id="link_Guest_View Products"><path d="M210.08,69.5 C228,92.06 250.577,120.4627 265.907,139.7527 " fill="none" id="Guest-to-View Products" style="stroke:#181818;stroke-width:1.0;"/><polygon fill="#181818" points="269.64,144.45,267.172,134.9154,266.5292,140.5356,260.909,139.8927,269.64,144.45" style="stroke:#181818;stroke-width:1.0;"/></g><!--link Guest to Search Products--><g id="link_Guest_Search Products"><path d="M171.92,69.5 C154.31,91.67 132.344,119.3135 116.904,138.7335 " fill="none" id="Guest-to-Search Products" style="stroke:#181818;stroke-width:1.0;"/><polygon fill="#181818" points="113.17,143.43,121.902,138.8746,116.2817,139.5162,115.64,133.8959,113.17,143.43" style="stroke:#181818;stroke-width:1.0;"/></g><!--SRC=[IqmkoIzIS2zDBIxXAafDBadCIyz9LL1oAielByxCIrTIgEPI00Am0WLTNJi5ZR3Cr7A5WABybDBaac9DTDdWrCIYv0ma-Le0]--></g></svg>