<?xml version="1.0" encoding="us-ascii" standalone="no"?><svg xmlns="http://www.w3.org/2000/svg" xmlns:xlink="http://www.w3.org/1999/xlink" contentStyleType="text/css" height="208px" preserveAspectRatio="none" style="width:1077px;height:208px;background:#FFFFFF;" version="1.1" viewBox="0 0 1077 208" width="1077px" zoomAndPan="magnify"><defs/><g><!--cluster Shopping Cart--><g id="cluster_Shopping Cart"><rect fill="none" height="84" rx="2.5" ry="2.5" style="stroke:#181818;stroke-width:1.0;" width="450" x="7" y="113"/><text fill="#000000" font-family="sans-serif" font-size="14" font-weight="bold" lengthAdjust="spacing" textLength="100" x="182" y="129.5332">Shopping Cart</text></g><!--cluster Checkout--><g id="cluster_Checkout"><rect fill="none" height="95" rx="2.5" ry="2.5" style="stroke:#181818;stroke-width:1.0;" width="590" x="481" y="107.5"/><text fill="#000000" font-family="sans-serif" font-size="14" font-weight="bold" lengthAdjust="spacing" textLength="67" x="742.5" y="124.0332">Checkout</text></g><g id="elem_Add Item"><ellipse cx="390.0646" cy="165.0012" fill="#F1F1F1" rx="50.5646" ry="15.5012" style="stroke:#181818;stroke-width:0.5;"/><text fill="#000000" font-family="sans-serif" font-size="14" lengthAdjust="spacing" textLength="55" x="359.5737" y="169.5158">Add Item</text></g><g id="elem_Remove Item"><ellipse cx="236.0887" cy="165.0177" fill="#F1F1F1" rx="68.0887" ry="16.0177" style="stroke:#181818;stroke-width:0.5;"/><text fill="#000000" font-family="sans-serif" font-size="14" lengthAdjust="spacing" textLength="82" x="192.0887" y="169.5343">Remove Item</text></g><g id="elem_View Cart"><ellipse cx="77.758" cy="165.0364" fill="#F1F1F1" rx="54.258" ry="15.5364" style="stroke:#181818;stroke-width:0.5;"/><text fill="#000000" font-family="sans-serif" font-size="14" lengthAdjust="spacing" textLength="60" x="44.758" y="169.553">View Cart</text></g><g id="elem_Enter Shipping Info"><ellipse cx="971.8351" cy="164.867" fill="#F1F1F1" rx="82.3351" ry="18.867" style="stroke:#181818;stroke-width:0.5;"/><text fill="#000000" font-family="sans-serif" font-size="14" lengthAdjust="spacing" textLength="120" x="911.8351" y="168.5955">Enter Shipping Info</text></g><g id="elem_Select Payment Method"><ellipse cx="758.7514" cy="164.8503" fill="#F1F1F1" rx="94.7514" ry="21.3503" style="stroke:#181818;stroke-width:0.5;"/><text fill="#000000" font-family="sans-serif" font-size="14" lengthAdjust="spacing" textLength="149" x="684.2514" y="168.5788">Select Payment Method</text></g><g id="elem_Place Order"><ellipse cx="563.08" cy="165.1227" fill="#F1F1F1" rx="66.08" ry="15.6227" style="stroke:#181818;stroke-width:0.5;"/><text fill="#000000" font-family="sans-serif" font-size="14" lengthAdjust="spacing" textLength="76" x="522.08" y="169.6393">Place Order</text></g><!--entity User--><g id="elem_User"><ellipse cx="476" cy="14" fill="#F1F1F1" rx="8" ry="8" style="stroke:#181818;stroke-width:0.5;"/><path d="M476,22 L476,49 M463,30 L489,30 M476,49 L463,64 M476,49 L489,64 " fill="none" style="stroke:#181818;stroke-width:0.5;"/><text fill="#000000" font-family="sans-serif" font-size="14" lengthAdjust="spacing" textLength="29" x="461.5" y="80.0332">User</text></g><!--link User to Add Item--><g id="link_User_Add Item"><path d="M461.41,65.6 C444.06,89.51 419.0743,123.9442 403.8543,144.9142 " fill="none" id="User-to-Add Item" style="stroke:#181818;stroke-width:1.0;"/><polygon fill="#181818" points="400.33,149.77,408.8537,144.8358,403.267,145.7235,402.3793,140.1367,400.33,149.77" style="stroke:#181818;stroke-width:1.0;"/></g><!--link User to Remove Item--><g id="link_User_Remove Item"><path d="M461.37,49.02 C433.27,56.13 370.24,73.75 322,99.5 C295.82,113.48 273.5349,131.0529 256.9549,145.3429 " fill="none" id="User-to-Remove Item" style="stroke:#181818;stroke-width:1.0;"/><polygon fill="#181818" points="252.41,149.26,261.8388,146.4142,256.1974,145.9957,256.6159,140.3544,252.41,149.26" style="stroke:#181818;stroke-width:1.0;"/></g><!--link User to View Cart--><g id="link_User_View Cart"><path d="M461.22,45.13 C413.66,44.52 261.27,47.03 151,99.5 C125.96,111.42 107.0001,130.0325 93.7601,145.1025 " fill="none" id="User-to-View Cart" style="stroke:#181818;stroke-width:1.0;"/><polygon fill="#181818" points="89.8,149.61,98.7452,145.4889,93.1001,145.8538,92.7352,140.2087,89.8,149.61" style="stroke:#181818;stroke-width:1.0;"/></g><!--link User to Enter Shipping Info--><g id="link_User_Enter Shipping Info"><path d="M490.57,45.25 C543.58,44.78 730.45,47.16 872,99.5 C901.65,110.46 926.8492,127.6696 946.1292,142.7096 " fill="none" id="User-to-Enter Shipping Info" style="stroke:#181818;stroke-width:1.0;"/><polygon fill="#181818" points="950.86,146.4,946.2241,137.7105,946.9176,143.3246,941.3035,144.0182,950.86,146.4" style="stroke:#181818;stroke-width:1.0;"/></g><!--link User to Select Payment Method--><g id="link_User_Select Payment Method"><path d="M490.57,48.96 C520.58,56.33 591.14,74.94 647,99.5 C675.96,112.23 701.9188,127.3192 723.9588,141.1592 " fill="none" id="User-to-Select Payment Method" style="stroke:#181818;stroke-width:1.0;"/><polygon fill="#181818" points="729.04,144.35,723.5453,136.1764,724.8056,141.691,719.291,142.9514,729.04,144.35" style="stroke:#181818;stroke-width:1.0;"/></g><!--link User to Place Order--><g id="link_User_Place Order"><path d="M490.56,65.33 C507.98,89.05 533.1588,123.3638 548.6888,144.5138 " fill="none" id="User-to-Place Order" style="stroke:#181818;stroke-width:1.0;"/><polygon fill="#181818" points="552.24,149.35,550.1374,139.7282,549.2807,145.3198,543.6891,144.4631,552.24,149.35" style="stroke:#181818;stroke-width:1.0;"/></g><!--SRC=[ROxB2i8m44Nt_OgXAxleBmXIN7GX5eFkGt9jWdcKT5H4_7UZRYHqLiFSopaZ5ST4nncfIb0im-X0jJ1nccmOgPE9QtfMbETJehPTqsgZDVKCtnJt0toyOJ4wMTo_jAPw_Piw0tM9rmN9Dd1UXR6_J_fmZYLKm6KI3VBX4PXsO1DrMHgSLA1zqaZP_GO0]--></g></svg>